<svg id="Grupo_1363" data-name="Grupo 1363" xmlns="http://www.w3.org/2000/svg" width="309.783" height="325.307" viewBox="0 0 309.783 325.307">
  <g id="Grupo_1347" data-name="Grupo 1347" transform="translate(0 53.059)">
    <ellipse id="Elipse_67" data-name="Elipse 67" cx="154.892" cy="8.823" rx="154.892" ry="8.823" transform="translate(0 254.603)" fill="#d5d5d5"/>
    <g id="Grupo_1251" data-name="Grupo 1251" transform="translate(24.624 119.493)">
      <path id="Trazado_995" data-name="Trazado 995" d="M1874.54,826.424l14.852,6.419V693.329l-14.852-6.419Z" transform="translate(-1874.538 -686.91)" fill="#d8d8d8"/>
      <path id="Trazado_996" data-name="Trazado 996" d="M1705.5,686.91h62.808l14.85,6.419H1720.35Z" transform="translate(-1705.5 -686.91)" fill="#f5f5f5"/>
      <rect id="Rectángulo_446" data-name="Rectángulo 446" width="62.808" height="139.514" transform="translate(14.85 6.419)" fill="#ececec"/>
    </g>
    <g id="Grupo_1250" data-name="Grupo 1250" transform="translate(35.242 0)">
      <path id="Trazado_993" data-name="Trazado 993" d="M2541.422-1596.93l11.485,40.964-4-.924Z" transform="translate(-2500.147 1673.91)" fill="#f04d00" stroke="#707070" stroke-width="1"/>
      <path id="Trazado_987" data-name="Trazado 987" d="M386.673,218.152l-4.813,22.357a27.439,27.439,0,0,0,.034,11.9l8.994,39.944,14.215,4.164" transform="translate(-347.705 -216.962)" fill="#2d2d2d" stroke="#2d2d2d" stroke-width="1"/>
      <path id="Trazado_988" data-name="Trazado 988" d="M495.464,464.892,486.8,482.35l13.984,6.228Z" transform="translate(-460.167 -424.516)" fill="#191919" stroke="#191919" stroke-linecap="round" stroke-linejoin="round" stroke-width="1"/>
      <path id="Trazado_991" data-name="Trazado 991" d="M407.128,600.175l7.012-29.49a12.993,12.993,0,0,1,6.882-8.64l15.528-7.677a5.119,5.119,0,0,1,6.527,3.744l3.852,16.868h0a2.443,2.443,0,0,0-2.381,2.986l8.391,36.749a2.443,2.443,0,0,0,2.381,1.9h1.115l.5,2.184a3.717,3.717,0,0,1-3.627,4.553H414.852l-3.57-20.417a3.333,3.333,0,0,0-3.28-2.756Z" transform="translate(-403.745 -499.58)" fill="#464646" stroke="#464646" stroke-linecap="round" stroke-linejoin="round" stroke-width="1"/>
      <path id="Trazado_989" data-name="Trazado 989" d="M488.063,675.735h13.052a1.9,1.9,0,0,0,1.862-2.255L499.5,655.323a1.9,1.9,0,0,0-1.862-1.54H484.59a1.9,1.9,0,0,0-1.862,2.255L486.2,674.2a1.9,1.9,0,0,0,1.859,1.54Z" transform="translate(-461.731 -583.413)" fill="#373737"/>
      <path id="Trazado_990" data-name="Trazado 990" d="M492.041,676.924h6.835a1.74,1.74,0,0,0,1.71-2.068l-3-15.663a1.742,1.742,0,0,0-1.71-1.416h-6.835a1.74,1.74,0,0,0-1.71,2.068l3,15.663A1.74,1.74,0,0,0,492.041,676.924Z" transform="translate(-460.662 -585.915)" fill="#464646"/>
      <path id="Trazado_992" data-name="Trazado 992" d="M672.827,857.757l3.255-13.691h.873a3.333,3.333,0,0,1,3.28,2.756l3.579,20.428h-3.485a4.893,4.893,0,0,1-3.839-1.862l-2.735-3.461a4.892,4.892,0,0,1-.922-4.162Z" transform="translate(-672.7 -743.484)" fill="#2d2d2d" stroke="#2d2d2d" stroke-width="1"/>
      <rect id="Rectángulo_445" data-name="Rectángulo 445" width="3.471" height="81.122" rx="0.98" transform="translate(60.046 79.078) rotate(167.11)" fill="#464646" stroke="#464646" stroke-width="1"/>
      <path id="Trazado_994" data-name="Trazado 994" d="M2546.65-1623.849s3.431-.742,5.047,5.707,5.686,28.146,6.156,29.9a1.714,1.714,0,0,1-.113,1.353,1.706,1.706,0,0,1-1.062.844" transform="translate(-2513.264 1659.157)" fill="none" stroke="#f04d00" stroke-width="1"/>
    </g>
  </g>
  <g id="Grupo_2040" data-name="Grupo 2040" transform="translate(122.804 0)">
    <g id="Grupo_2039" data-name="Grupo 2039">
      <path id="Trazado_1063" data-name="Trazado 1063" d="M1630.064,3545.34s-2.32-6.9-5.625-5.247c-2.955,1.479-7.865,4.333-9.073-2.956-.529-3.189-1.242-8.357-1.693-13.568-.579-6.7-.727-13.464.505-16.2,2.191-4.857,17.508-16.382,27.093-3.741s4.6,14.219,4.6,18.712-1.082,7.758-.122,10.925-11.317,12-11.317,12Z" transform="translate(-1561.729 -3495.35)" fill="#e5be99"/>
      <path id="Trazado_1064" data-name="Trazado 1064" d="M1619.2,3504.718s-10.429,3.225-10.8,1.79,2.672-10.18,7.287-9.447,8.626-2.179,10.084-2.42,10.327-.962,14.817,3.538,7.765,10.7,6.666,17.619-4.982,7.782-5.171,12.575-1.764-.19-2.369-3.836-3.112-12.592-6.652-12.192-6.54.711-6.749,4.677-5.023-5.366-6.265-7.2C1618.925,3508.156,1619.2,3504.718,1619.2,3504.718Z" transform="translate(-1558.432 -3494.448)"/>
      <path id="Trazado_1022" data-name="Trazado 1022" d="M1710.887,3655.305l-25.694,16.663c-6.78,10.352-9.375,11.377-10.513,9.939-1.706-2.155-.561-3.531-1.478-5.173s-6.65,1.479-10.344,4.434c-4,3.2-2.96-1.767-1.881-3.035,4.1-4.354,6.315-8.788,16.862-11.674l25.784-24.438Z" transform="translate(-1660 -3532.977)" fill="#e5be99"/>
      <path id="Trazado_1065" data-name="Trazado 1065" d="M1675.66,3568.974a8.114,8.114,0,0,0-8.27-3.217c-4.068.844-10.361,3.042-14.531,8.746-6.6,9.027-19.18,39.858-24.876,45.681-4.462,4.563-15.087,14.751-19.479,18.95a2.478,2.478,0,0,0,.078,3.652l9.02,7.944a2.48,2.48,0,0,0,3.057.174l24.161-16.833,28.912-43.02a24.862,24.862,0,0,0,4.266-12.113A15.259,15.259,0,0,0,1675.66,3568.974Z" transform="translate(-1588.551 -3513.021)" fill="#e9b714"/>
      <rect id="Rectángulo_1088" data-name="Rectángulo 1088" width="8.128" height="8.128" transform="translate(84.877 286.37)" fill="#e5be99"/>
      <path id="Trazado_1066" data-name="Trazado 1066" d="M1598.918,3899.633l26.427-9.173a14.652,14.652,0,0,1,4.812-.812,15.746,15.746,0,0,0,5.621,1.373,5.313,5.313,0,0,0,4-1.373,2.87,2.87,0,0,1,2.87,2.87v9.715a3.213,3.213,0,0,1-3.214,3.214h-40.069a1.365,1.365,0,0,1-1.365-1.365v-3.159A1.365,1.365,0,0,1,1598.918,3899.633Z" transform="translate(-1545.947 -3597.627)" fill="#101010"/>
      <path id="Trazado_1067" data-name="Trazado 1067" d="M1613.752,3834.178s-8.243-46.025-12.988-66.609S1589.9,3702.65,1590,3696h48.135s-14.039,31.775-13.3,51.726,5.172,85.714,4.433,87.93S1613.752,3834.178,1613.752,3834.178Z" transform="translate(-1535.525 -3547.069)" fill="#292929"/>
      <rect id="Rectángulo_1089" data-name="Rectángulo 1089" width="8.128" height="8.128" transform="translate(95.961 295.237)" fill="#e5be99"/>
      <path id="Trazado_1068" data-name="Trazado 1068" d="M1582.917,3912.633l26.428-9.173a14.66,14.66,0,0,1,4.813-.812,15.732,15.732,0,0,0,5.621,1.375,5.312,5.312,0,0,0,4-1.375,2.871,2.871,0,0,1,2.87,2.871v9.715a3.213,3.213,0,0,1-3.214,3.214h-40.069a1.365,1.365,0,0,1-1.364-1.365v-3.16A1.365,1.365,0,0,1,1582.917,3912.633Z" transform="translate(-1518.125 -3601.021)" fill="#212121"/>
      <path id="Trazado_1069" data-name="Trazado 1069" d="M1610.274,3843.784s-8.242-46.024-12.988-66.608-11.5-74.525-11.4-81.176h39.9s-5.172,41.38-4.434,61.331,5.173,85.715,4.434,87.931S1610.274,3843.784,1610.274,3843.784Z" transform="translate(-1520.224 -3547.069)" fill="#3e3e3e"/>
      <path id="Trazado_1070" data-name="Trazado 1070" d="M1600.773,3555.785s5.461-4.438,7.9-5.693c1.84-.947,7.367-2.9,10.163-3.864a2.138,2.138,0,0,1,2.546.944l5.847,11.756a40.4,40.4,0,0,1,5.3,15.971l9.83,78.8a2.163,2.163,0,0,1-2.147,2.431l-55.041.739a2.285,2.285,0,0,1-2.284-2.36l5.026-62.583a61.058,61.058,0,0,1,7.221-26.846l4.135-7.707A4.157,4.157,0,0,1,1600.773,3555.785Z" transform="translate(-1534.509 -3507.936)" fill="#f2f2f2"/>
      <path id="Trazado_1071" data-name="Trazado 1071" d="M1597.805,3550.092c1.84-.947,7.367-2.9,10.163-3.864a2.137,2.137,0,0,1,2.546.944l7.325,12.494a40.418,40.418,0,0,1,5.3,15.972l9.83,78.8a2.163,2.163,0,0,1-2.146,2.431s-13.6-1.143-19.174,2.676c-9.042,6.191-28.477,3.974-28.477,3.974a2.285,2.285,0,0,1-2.284-2.36s5.088-91.706,9.528-99.98C1590.416,3561.176,1595.367,3551.347,1597.805,3550.092Z" transform="translate(-1523.642 -3507.936)" fill="#ffcf33"/>
      <path id="Trazado_1072" data-name="Trazado 1072" d="M1647.624,3716.241s-1.478,10.349-1.478,14.044c0,1.877-2.1,7.626-4.991,9.193a5.605,5.605,0,0,1-8.18-3.974c-.114-.653-.207-1.357-.27-2.119-.5-6.055,1.815-15.2,6.2-19.126.98-.877,3.361-5.332,4.288-5.4,1.587-.121,4.858-.846,5.911,0C1650.187,3709.728,1647.624,3716.241,1647.624,3716.241Z" transform="translate(-1578.264 -3550.32)" fill="#e5be99"/>
      <path id="Trazado_1073" data-name="Trazado 1073" d="M1627.06,3568.885a8.113,8.113,0,0,0-8.8,1.129c-3.168,2.686-7.644,7.626-8.578,14.631-1.478,11.083,2.217,44.177,0,52.015-1.737,6.14-9.89,29.036-11.738,34.824a2.477,2.477,0,0,0,1.814,3.169l11.722,2.664a2.48,2.48,0,0,0,2.768-1.309l16.864-35.2,4.817-51.608a24.876,24.876,0,0,0-2.046-12.678A15.265,15.265,0,0,0,1627.06,3568.885Z" transform="translate(-1539.212 -3513.67)" fill="#ffe285"/>
    </g>
    <path id="Trazado_1074" data-name="Trazado 1074" d="M1649.777,3522s.451,7.612,0,9.633c-1.478,6.624-12.362,2.053-13.338,2.133-.7.058.037,12.619,1.515,14.1s10.345,2.217,11.084-2.216,3.4-9.658,3.548-12.589-.593-10.318-.593-10.318Z" transform="translate(-1584.111 -3501.641)"/>
  </g>
</svg>
