<svg xmlns="http://www.w3.org/2000/svg" xmlns:xlink="http://www.w3.org/1999/xlink" width="762.212" height="532.373" viewBox="0 0 762.212 532.373">
  <defs>
    <linearGradient id="linear-gradient" x1="0.5" y1="-0.341" x2="0.491" y2="1.278" gradientUnits="objectBoundingBox">
      <stop offset="0" stop-color="#dedede"/>
      <stop offset="1" stop-color="#fff"/>
    </linearGradient>
    <filter id="Rectángulo_1095" x="75.644" y="2.289" width="587.492" height="415.844" filterUnits="userSpaceOnUse">
      <feOffset dy="3" input="SourceAlpha"/>
      <feGaussianBlur stdDeviation="3" result="blur"/>
      <feFlood flood-opacity="0.161"/>
      <feComposite operator="in" in2="blur"/>
      <feComposite in="SourceGraphic"/>
    </filter>
    <linearGradient id="linear-gradient-2" x1="0.5" y1="-0.341" x2="0.491" y2="1.278" gradientUnits="objectBoundingBox">
      <stop offset="0" stop-color="#6a6a6a"/>
      <stop offset="1" stop-color="#161616"/>
    </linearGradient>
    <filter id="Rectángulo_418" x="161.566" y="62.265" width="283.999" height="86.774" filterUnits="userSpaceOnUse">
      <feOffset dy="3" input="SourceAlpha"/>
      <feGaussianBlur stdDeviation="3" result="blur-2"/>
      <feFlood flood-opacity="0.161"/>
      <feComposite operator="in" in2="blur-2"/>
      <feComposite in="SourceGraphic"/>
    </filter>
    <filter id="Rectángulo_418-2" x="161.566" y="149.047" width="283.999" height="81.64" filterUnits="userSpaceOnUse">
      <feOffset dy="3" input="SourceAlpha"/>
      <feGaussianBlur stdDeviation="3" result="blur-3"/>
      <feFlood flood-opacity="0.161"/>
      <feComposite operator="in" in2="blur-3"/>
      <feComposite in="SourceGraphic"/>
    </filter>
    <filter id="Rectángulo_418-3" x="161.566" y="233.032" width="283.999" height="84.437" filterUnits="userSpaceOnUse">
      <feOffset dy="3" input="SourceAlpha"/>
      <feGaussianBlur stdDeviation="3" result="blur-4"/>
      <feFlood flood-opacity="0.161"/>
      <feComposite operator="in" in2="blur-4"/>
      <feComposite in="SourceGraphic"/>
    </filter>
    <filter id="Rectángulo_418-4" x="472.406" y="73.631" width="242.4" height="80.606" filterUnits="userSpaceOnUse">
      <feOffset dy="3" input="SourceAlpha"/>
      <feGaussianBlur stdDeviation="3" result="blur-5"/>
      <feFlood flood-opacity="0.161"/>
      <feComposite operator="in" in2="blur-5"/>
      <feComposite in="SourceGraphic"/>
    </filter>
    <filter id="Rectángulo_418-5" x="472.406" y="153.096" width="242.4" height="76.274" filterUnits="userSpaceOnUse">
      <feOffset dy="3" input="SourceAlpha"/>
      <feGaussianBlur stdDeviation="3" result="blur-6"/>
      <feFlood flood-opacity="0.161"/>
      <feComposite operator="in" in2="blur-6"/>
      <feComposite in="SourceGraphic"/>
    </filter>
    <filter id="Rectángulo_418-6" x="472.406" y="230.202" width="242.4" height="78.634" filterUnits="userSpaceOnUse">
      <feOffset dy="3" input="SourceAlpha"/>
      <feGaussianBlur stdDeviation="3" result="blur-7"/>
      <feFlood flood-opacity="0.161"/>
      <feComposite operator="in" in2="blur-7"/>
      <feComposite in="SourceGraphic"/>
    </filter>
    <filter id="Rectángulo_423" x="0" y="116.702" width="159.107" height="153.366" filterUnits="userSpaceOnUse">
      <feOffset dy="3" input="SourceAlpha"/>
      <feGaussianBlur stdDeviation="3" result="blur-8"/>
      <feFlood flood-opacity="0.161"/>
      <feComposite operator="in" in2="blur-8"/>
      <feComposite in="SourceGraphic"/>
    </filter>
  </defs>
  <g id="Grupo_2073" data-name="Grupo 2073" transform="translate(-557.457 -113.557)">
    <g id="Grupo_2062" data-name="Grupo 2062" transform="translate(557.457 113.557)">
      <g transform="matrix(1, 0, 0, 1, 0, 0)" filter="url(#Rectángulo_1095)">
        <path id="Rectángulo_1095-2" data-name="Rectángulo 1095" d="M31.958,7.185l529.8,27.353a15.929,15.929,0,0,1,6.536,1.795,18.037,18.037,0,0,1,5.318,4.24,20.01,20.01,0,0,1,3.575,6.057,20.7,20.7,0,0,1,1.309,7.259V354.7a20.724,20.724,0,0,1-1.309,7.262,20.066,20.066,0,0,1-3.575,6.065,18.093,18.093,0,0,1-5.318,4.252,15.956,15.956,0,0,1-6.536,1.809l-529.8,28.517a23.3,23.3,0,0,1-8.9-1.226,21.57,21.57,0,0,1-7.3-4.268,20.246,20.246,0,0,1-4.939-6.66A20.023,20.023,0,0,1,9,382.07V27.774a20.05,20.05,0,0,1,1.814-8.388,20.309,20.309,0,0,1,4.939-6.671,21.631,21.631,0,0,1,7.3-4.284A23.316,23.316,0,0,1,31.958,7.185Z" transform="translate(75.64 2.29)" fill="url(#linear-gradient)"/>
      </g>
      <path id="Rectángulo_1090" data-name="Rectángulo 1090" d="M22.958,1.236l524.3,28.221a16.032,16.032,0,0,1,6.558,1.813,18.154,18.154,0,0,1,5.336,4.26,20.1,20.1,0,0,1,3.588,6.076,20.732,20.732,0,0,1,1.313,7.274V350.2a20.709,20.709,0,0,1-1.313,7.272,20.039,20.039,0,0,1-3.588,6.068,18.1,18.1,0,0,1-5.336,4.248,16.006,16.006,0,0,1-6.558,1.8l-524.3,27.069a23.317,23.317,0,0,1-8.9-1.245,21.631,21.631,0,0,1-7.3-4.284,20.309,20.309,0,0,1-4.939-6.671A20.05,20.05,0,0,1,0,376.07V21.774A20.023,20.023,0,0,1,1.814,13.39,20.246,20.246,0,0,1,6.753,6.73a21.57,21.57,0,0,1,7.3-4.268A23.3,23.3,0,0,1,22.958,1.236Z" transform="translate(84.644 0)" fill="url(#linear-gradient-2)"/>
      <path id="Rectángulo_1091" data-name="Rectángulo 1091" d="M4.562.221,523.919,25.405a3.207,3.207,0,0,1,1.315.356,3.628,3.628,0,0,1,1.074.85,4.016,4.016,0,0,1,.723,1.218,4.144,4.144,0,0,1,.265,1.461V305.18a4.124,4.124,0,0,1-.265,1.459,3.968,3.968,0,0,1-.723,1.211,3.582,3.582,0,0,1-1.074.84,3.186,3.186,0,0,1-1.315.344L4.562,329.491a4.664,4.664,0,0,1-1.775-.27,4.36,4.36,0,0,1-1.45-.871,4.1,4.1,0,0,1-.978-1.338A4.028,4.028,0,0,1,0,325.341V4.33A4.006,4.006,0,0,1,.359,2.662a4.049,4.049,0,0,1,.978-1.329A4.307,4.307,0,0,1,2.788.475,4.646,4.646,0,0,1,4.562.221Z" transform="translate(105.877 21.159)" fill="#f5f5f5"/>
      <g id="Rectángulo_1093" data-name="Rectángulo 1093" transform="translate(385.205 20.537)" fill="#7f7f7f">
        <path d="M4.781.251A4.816,4.816,0,0,1,6.638.734,5.134,5.134,0,0,1,8.154,1.862,5.266,5.266,0,0,1,9.175,3.469a5.135,5.135,0,0,1,.374,1.923,4.848,4.848,0,0,1-.374,1.885,4.582,4.582,0,0,1-1.021,1.5,4.455,4.455,0,0,1-1.515.973,4.533,4.533,0,0,1-1.857.292,4.814,4.814,0,0,1-1.859-.478A5.132,5.132,0,0,1,1.4,8.442,5.266,5.266,0,0,1,.376,6.832,5.135,5.135,0,0,1,0,4.9,4.847,4.847,0,0,1,.376,3.014,4.581,4.581,0,0,1,1.4,1.509,4.455,4.455,0,0,1,2.922.539,4.535,4.535,0,0,1,4.781.251Z" stroke="none"/>
        <path d="M 4.780986785888672 9.044782638549805 C 5.304581165313721 9.070980072021484 5.803623676300049 8.986736297607422 6.257627964019775 8.812111854553223 C 6.711513519287109 8.637533187866211 7.120406627655029 8.372612953186035 7.463847637176514 8.037376403808594 C 7.807219505310059 7.702207088470459 8.085190773010254 7.296723365783691 8.277308464050293 6.840911388397217 C 8.469405174255371 6.385150909423828 8.575685501098633 5.8790283203125 8.575685501098633 5.342493534088135 C 8.575685501098633 4.805958271026611 8.469405174255371 4.288962364196777 8.277308464050293 3.813547611236572 C 8.085190773010254 3.338080644607544 7.807219505310059 2.904156684875488 7.463847637176514 2.533854722976685 C 7.120406627655029 2.163479566574097 6.711513519287109 1.856723546981812 6.257627964019775 1.635705828666687 C 5.803623676300049 1.41463041305542 5.304581165313721 1.279326558113098 4.780986785888672 1.251951932907104 C 4.257233142852783 1.224568843841553 3.75774621963501 1.307731628417969 3.303087472915649 1.481496930122375 C 2.848309755325317 1.65530788898468 2.438408374786377 1.919760227203369 2.093971729278564 2.254874467849731 C 1.749466776847839 2.590055465698242 1.470479130744934 2.995901823043823 1.277606606483459 3.452393770217896 C 1.084712862968445 3.908937215805054 0.9779730439186096 4.416093349456787 0.9779730439186096 4.953805446624756 C 0.9779730439186096 5.491517066955566 1.084712862968445 6.009594440460205 1.277606606483459 6.485875606536865 C 1.470479130744934 6.962103843688965 1.749466776847839 7.396495819091797 2.093971729278564 7.766926288604736 C 2.438408374786377 8.137284278869629 2.848309755325317 8.443675994873047 3.303087472915649 8.664020538330078 C 3.75774621963501 8.884306907653809 4.257233142852783 9.018575668334961 4.780986785888672 9.044782638549805 M 4.780986785888672 10.04538822174072 C 4.121654510498047 10.01258945465088 3.493298053741455 9.844250679016113 2.921578168869019 9.567851066589355 C 2.349669933319092 9.29135799407959 1.834473133087158 8.906754493713379 1.401686429977417 8.441574096679688 C 0.9687919020652771 7.976280212402344 0.6183902621269226 7.430414199829102 0.3761952817440033 6.831583023071289 C 0.1339664459228516 6.232666492462158 4.783298663824098e-06 5.580843925476074 4.783298663824098e-06 4.903774738311768 C 4.783298663824098e-06 4.226705074310303 0.1339664310216904 3.588588714599609 0.3761951923370361 3.014457702636719 C 0.6183901429176331 2.440406799316406 0.9687918424606323 1.930394768714905 1.401686429977417 1.509393334388733 C 1.834473133087158 1.088497161865234 2.349669933319092 0.7566070556640625 2.921578168869019 0.5386331081390381 C 3.493298053741455 0.3207309246063232 4.121654510498047 0.2166840434074402 4.780986785888672 0.2513457536697388 C 5.440067768096924 0.2859942615032196 6.067719459533691 0.4559688568115234 6.63840389251709 0.73361736536026 C 7.208900451660156 1.011174440383911 7.722503185272217 1.396353006362915 8.153717041015625 1.861560821533203 C 8.584820747375488 2.326652526855469 8.933618545532227 2.87177848815918 9.174622535705566 3.469409704208374 C 9.415592193603516 4.066957473754883 9.548829078674316 4.717070579528809 9.548829078674316 5.392277717590332 C 9.548829078674316 6.067484855651855 9.415592193603516 6.70396614074707 9.174622535705566 7.27686071395874 C 8.933618545532227 7.849833965301514 8.584820747375488 8.359272956848145 8.153717041015625 8.780255317687988 C 7.722503185272217 9.201343536376953 7.208900451660156 9.533973693847656 6.63840389251709 9.753161430358887 C 6.067719459533691 9.972418785095215 5.440067768096924 10.07817554473877 4.780986785888672 10.04538822174072 Z" stroke="none" fill="#3e3e3e"/>
      </g>
      <g id="Rectángulo_1096" data-name="Rectángulo 1096" transform="translate(378.809 348.964)" fill="#2e2e2e">
        <path d="M10.767.486l.818-.035a10.211,10.211,0,0,1,4.171.688,10.09,10.09,0,0,1,3.4,2.209,10.38,10.38,0,0,1,2.288,3.39,10.932,10.932,0,0,1,.838,4.234v.837a11.506,11.506,0,0,1-.838,4.31,11.747,11.747,0,0,1-2.288,3.6,11.448,11.448,0,0,1-3.4,2.518A10.782,10.782,0,0,1,11.585,23.3l-.818.04a10.223,10.223,0,0,1-4.183-.662,10.09,10.09,0,0,1-3.423-2.2,10.375,10.375,0,0,1-2.312-3.4A10.928,10.928,0,0,1,0,12.825v-.842A11.506,11.506,0,0,1,.849,7.647,11.745,11.745,0,0,1,3.16,4.038a11.442,11.442,0,0,1,3.423-2.51A10.778,10.778,0,0,1,10.767.486Z" stroke="none"/>
        <path d="M 11.58533954620361 23.05142593383789 C 12.28534126281738 23.0173168182373 12.97459125518799 22.9138355255127 13.64553165435791 22.74460792541504 C 14.3162145614624 22.57545280456543 14.96861553192139 22.34059715270996 15.59520149230957 22.04366493225098 C 16.2215576171875 21.7468376159668 16.8221321105957 21.38796997070312 17.38940048217773 20.97066497802734 C 17.95647811889648 20.55349731445312 18.49029541015625 20.07790756225586 18.98332786560059 19.54749298095703 C 19.47622108459473 19.01722717285156 19.91363525390625 18.44799995422363 20.29249000549316 17.84770584106445 C 20.67126274108887 17.24753952026367 20.99152183532715 16.61627197265625 21.25018882751465 15.96178531646729 C 21.50881576538086 15.30739688873291 21.70588302612305 14.62974643707275 21.83828544616699 13.93669509887695 C 21.97067642211914 13.24369621276855 22.03843307495117 12.53525066375732 22.03843307495117 11.8192081451416 L 22.03843307495117 10.98240852355957 C 22.03843307495117 10.26636600494385 21.97067642211914 9.564084053039551 21.83828544616699 8.883138656616211 C 21.70588302612305 8.202136993408203 21.50881576538086 7.542422771453857 21.25018882751465 6.91157341003418 C 20.99152183532715 6.280630588531494 20.67126274108887 5.678516387939453 20.29249000549316 5.1128249168396 C 19.91363525390625 4.547009944915771 19.47622108459473 4.017595291137695 18.98332786560059 3.532191514968872 C 18.49029541015625 3.046651124954224 17.95647811889648 2.619652032852173 17.38940048217773 2.254096508026123 C 16.8221321105957 1.888421773910522 16.2215576171875 1.584217429161072 15.59520149230957 1.344401955604553 C 14.96861553192139 1.104499578475952 14.3162145614624 0.9290257692337036 13.64553165435791 0.8209105730056763 C 12.97459125518799 0.7127537131309509 12.28534126281738 0.6720055341720581 11.58533954620361 0.7016054391860962 L 10.76693058013916 0.7362126111984253 C 10.06631565093994 0.7658385038375854 9.375908851623535 0.8649990558624268 8.703312873840332 1.030190348625183 C 8.030454635620117 1.195445537567139 7.375435829162598 1.426779508590698 6.745873928070068 1.720677733421326 C 6.116084098815918 2.014682769775391 5.511788845062256 2.371289014816284 4.940621852874756 2.786968469619751 C 4.369266986846924 3.202785015106201 3.831085205078125 3.677698612213135 3.333721399307251 4.208165168762207 C 2.836217641830444 4.738787174224854 2.39447283744812 5.309082508087158 2.011686563491821 5.911106586456299 C 1.62881600856781 6.513262748718262 1.304955840110779 7.147122383117676 1.043297529220581 7.804721355438232 C 0.7815998196601868 8.462420463562012 0.5821413397789001 9.143819808959961 0.4481031894683838 9.840948104858398 C 0.3140546679496765 10.53812885284424 0.2454466372728348 11.25099182128906 0.2454466372728348 11.97154808044434 L 0.2454466372728348 12.81362438201904 C 0.2454466372728348 13.53418064117432 0.3140546679496765 14.24079513549805 0.4481031894683838 14.92577743530273 C 0.5821413397789001 15.61070537567139 0.7815998196601868 16.27395057678223 1.043297529220581 16.9078311920166 C 1.304955840110779 17.5416145324707 1.62881600856781 18.14599609375 2.011686563491821 18.71330642700195 C 2.39447283744812 19.28048896789551 2.836217641830444 19.81057929992676 3.333721399307251 20.29591369628906 C 3.831085205078125 20.78111267089844 4.369266986846924 21.2070426940918 4.940621852874756 21.57085609436035 C 5.511788845062256 21.93455123901367 6.116084098815918 22.23615455627441 6.745873928070068 22.47283554077148 C 7.375435829162598 22.70943450927734 8.030454635620117 22.88114738464355 8.703312873840332 22.98516273498535 C 9.375908851623535 23.08913421630859 10.06631565093994 23.12545585632324 10.76693058013916 23.09131240844727 L 11.58533954620361 23.05142593383789 M 11.58533954620361 23.30154800415039 L 10.76693058013916 23.34149360656738 C 9.284296035766602 23.41385269165039 7.870662212371826 23.17455863952637 6.583888530731201 22.67954063415527 C 5.296160221099854 22.18415069580078 4.135671138763428 21.43273544311523 3.16048002243042 20.48149108886719 C 2.184740781784058 19.52971458435059 1.394715905189514 18.37809181213379 0.8485403656959534 17.08315658569336 C 0.3021929562091827 15.78781127929688 1.227613211085554e-06 14.34942531585693 1.227613211085554e-06 12.8248233795166 L 1.227613211085554e-06 11.98268795013428 C 1.227613211085554e-06 10.45808601379395 0.3021929562091827 8.992194175720215 0.8485403060913086 7.647122383117676 C 1.394715905189514 6.302472114562988 2.184740781784058 5.078945636749268 3.16048002243042 4.03835916519165 C 4.135671138763428 2.998355865478516 5.296160221099854 2.14130973815918 6.583888530731201 1.528716921806335 C 7.870662212371826 0.9165777564048767 9.284296035766602 0.5486187338829041 10.76693058013916 0.4860315024852753 L 11.58533954620361 0.451483428478241 C 13.06600856781006 0.3889791667461395 14.47541332244873 0.6371811032295227 15.75634574890137 1.139226794242859 C 17.03632926940918 1.640901327133179 18.18821907043457 2.396118402481079 19.15499687194824 3.348302364349365 C 20.12123489379883 4.299953937530518 20.90277099609375 5.448554515838623 21.44266700744629 6.737842559814453 C 21.98239326477051 8.026728630065918 22.2807788848877 9.456571578979492 22.2807788848877 10.97140789031982 L 22.2807788848877 11.80814838409424 C 22.2807788848877 13.32298469543457 21.98239326477051 14.77998638153076 21.44266700744629 16.11799812316895 C 20.90277099609375 17.45642471313477 20.12123489379883 18.67616081237793 19.15499687194824 19.71575927734375 C 18.18821907043457 20.75593566894531 17.03632926940918 21.61599540710449 15.75634574890137 22.23417282104492 C 14.47541332244873 22.85280418395996 13.06600856781006 23.22928619384766 11.58533954620361 23.30154800415039 Z" stroke="none" fill="#818181"/>
      </g>
      <path id="Rectángulo_1094" data-name="Rectángulo 1094" d="M2.654.138A2.676,2.676,0,0,1,3.687.405a2.852,2.852,0,0,1,.842.626,2.925,2.925,0,0,1,.568.894A2.853,2.853,0,0,1,5.3,2.994,2.693,2.693,0,0,1,5.1,4.042a2.545,2.545,0,0,1-.568.835,2.475,2.475,0,0,1-.842.54,2.519,2.519,0,0,1-1.032.162,2.675,2.675,0,0,1-1.033-.266,2.851,2.851,0,0,1-.844-.626,2.925,2.925,0,0,1-.569-.894A2.853,2.853,0,0,1,0,2.723,2.693,2.693,0,0,1,.209,1.674,2.545,2.545,0,0,1,.778.838,2.475,2.475,0,0,1,1.622.3,2.519,2.519,0,0,1,2.654.138Z" transform="translate(387.331 22.827)" fill="#272727"/>
      <g id="Grupo_2047" data-name="Grupo 2047" transform="translate(161.566 62.265)">
        <g transform="matrix(1, 0, 0, 1, -161.57, -62.27)" filter="url(#Rectángulo_418)">
          <path id="Rectángulo_418-7" data-name="Rectángulo 418" d="M17.8,6.322l249.583,9.126a7.536,7.536,0,0,1,2.967.73,8.011,8.011,0,0,1,2.419,1.782A8.317,8.317,0,0,1,275,23.623V66.877a8.047,8.047,0,0,1-.6,3.062,7.721,7.721,0,0,1-1.629,2.478,7.409,7.409,0,0,1-2.419,1.646,7.28,7.28,0,0,1-2.967.564L17.8,69.81a9.1,9.1,0,0,1-6.22-2.611,8.755,8.755,0,0,1-1.889-2.743A8.33,8.33,0,0,1,9,61.129V14.511a8.036,8.036,0,0,1,2.583-5.926,8.424,8.424,0,0,1,2.8-1.721A8.858,8.858,0,0,1,17.8,6.322Z" transform="translate(161.57 62.27)" fill="#fff"/>
        </g>
        <g id="Grupo_2043" data-name="Grupo 2043" transform="translate(35.202 27.638)">
          <g id="Grupo_2041" data-name="Grupo 2041">
            <path id="Rectángulo_438" data-name="Rectángulo 438" d="M3.544.11,18.823.582A3.653,3.653,0,0,1,21.3,1.662a3.576,3.576,0,0,1,.751,1.112,3.408,3.408,0,0,1,.275,1.342A3.276,3.276,0,0,1,21.3,6.508a3.383,3.383,0,0,1-1.115.7,3.517,3.517,0,0,1-1.366.23L3.544,7A3.692,3.692,0,0,1,1.039,5.914,3.591,3.591,0,0,1,.279,4.8,3.411,3.411,0,0,1,0,3.447,3.283,3.283,0,0,1,1.039,1.041a3.413,3.413,0,0,1,1.127-.7A3.56,3.56,0,0,1,3.544.11Z" fill="#ff3737"/>
            <path id="Rectángulo_438-2" data-name="Rectángulo 438" d="M3.49.108,151.742,4.691a3.2,3.2,0,0,1,1.248.3,3.347,3.347,0,0,1,1.018.733,3.424,3.424,0,0,1,.686,1.062,3.385,3.385,0,0,1,.252,1.282,3.272,3.272,0,0,1-.252,1.267,3.155,3.155,0,0,1-.686,1.021,3.07,3.07,0,0,1-2.267.893L3.49,6.941a3.6,3.6,0,0,1-1.358-.308,3.644,3.644,0,0,1-1.109-.765A3.564,3.564,0,0,1,.274,4.759,3.407,3.407,0,0,1,0,3.42,3.27,3.27,0,0,1,1.023,1.033a3.358,3.358,0,0,1,1.109-.7A3.482,3.482,0,0,1,3.49.108Z" transform="translate(28.162 0.871)" fill="#e2e2e2"/>
            <path id="Rectángulo_438-3" data-name="Rectángulo 438" d="M3.189.1l5.3.164A3.154,3.154,0,0,1,9.726.557a3.314,3.314,0,0,1,1.009.73,3.395,3.395,0,0,1,.929,2.332,3.27,3.27,0,0,1-.249,1.261,3.142,3.142,0,0,1-.68,1.016,3.033,3.033,0,0,1-2.244.889l-5.3-.154a3.167,3.167,0,0,1-1.241-.293,3.324,3.324,0,0,1-1.014-.73A3.4,3.4,0,0,1,0,3.269,3.271,3.271,0,0,1,.251,2,3.146,3.146,0,0,1,.935.986,3.045,3.045,0,0,1,3.189.1Z" transform="translate(188.437 5.825)" fill="#e2e2e2"/>
            <path id="Rectángulo_438-4" data-name="Rectángulo 438" d="M3.158.1,8.408.26A3.111,3.111,0,0,1,9.632.553a3.282,3.282,0,0,1,1,.726A3.386,3.386,0,0,1,11.55,3.6,3.269,3.269,0,0,1,11.3,4.854a3.128,3.128,0,0,1-.673,1.011,3,3,0,0,1-2.223.885L3.158,6.6a3.124,3.124,0,0,1-1.228-.291,3.291,3.291,0,0,1-1-.726A3.389,3.389,0,0,1,0,3.253,3.269,3.269,0,0,1,.248,1.994,3.132,3.132,0,0,1,.925.981,3.008,3.008,0,0,1,3.158.1Z" transform="translate(205.376 6.349)" fill="#e2e2e2"/>
          </g>
          <g id="Grupo_2042" data-name="Grupo 2042" transform="translate(0 14.935)">
            <path id="Rectángulo_438-5" data-name="Rectángulo 438" d="M3.544.1l15.279.41A3.638,3.638,0,0,1,21.3,1.575a3.556,3.556,0,0,1,.751,1.109,3.4,3.4,0,0,1,.275,1.341,3.29,3.29,0,0,1-1.027,2.4,3.4,3.4,0,0,1-1.115.706,3.524,3.524,0,0,1-1.366.235L3.544,6.982A3.676,3.676,0,0,1,1.039,5.91,3.571,3.571,0,0,1,.279,4.8,3.4,3.4,0,0,1,0,3.447a3.3,3.3,0,0,1,1.039-2.41A3.432,3.432,0,0,1,2.165.329,3.567,3.567,0,0,1,3.544.1Z" fill="#ff3737"/>
            <path id="Rectángulo_438-6" data-name="Rectángulo 438" d="M3.49.094,151.742,4.072a3.19,3.19,0,0,1,1.248.291,3.328,3.328,0,0,1,1.018.729,3.389,3.389,0,0,1,.938,2.34A3.28,3.28,0,0,1,154.7,8.7a3.173,3.173,0,0,1-.686,1.024,3.083,3.083,0,0,1-2.267.9L3.49,6.927A3.606,3.606,0,0,1,1.023,5.864,3.544,3.544,0,0,1,.274,4.758,3.4,3.4,0,0,1,0,3.42,3.284,3.284,0,0,1,1.023,1.029a3.377,3.377,0,0,1,1.109-.7A3.489,3.489,0,0,1,3.49.094Z" transform="translate(28.162 0.756)" fill="#e2e2e2"/>
            <path id="Rectángulo_438-7" data-name="Rectángulo 438" d="M3.189.086l5.3.142A3.146,3.146,0,0,1,9.726.517a3.3,3.3,0,0,1,1.009.725,3.381,3.381,0,0,1,.929,2.329,3.278,3.278,0,0,1-.249,1.262,3.159,3.159,0,0,1-.68,1.019,3.045,3.045,0,0,1-2.244.9l-5.3-.132A3.159,3.159,0,0,1,1.948,6.33,3.3,3.3,0,0,1,.935,5.6,3.384,3.384,0,0,1,0,3.269,3.278,3.278,0,0,1,.251,2,3.163,3.163,0,0,1,.935.982a3.057,3.057,0,0,1,2.254-.9Z" transform="translate(188.437 5.057)" fill="#e2e2e2"/>
            <path id="Rectángulo_438-8" data-name="Rectángulo 438" d="M3.158.085l5.25.141A3.1,3.1,0,0,1,9.632.513a3.263,3.263,0,0,1,1,.722,3.373,3.373,0,0,1,.92,2.317A3.276,3.276,0,0,1,11.3,4.808a3.145,3.145,0,0,1-.673,1.014,3.008,3.008,0,0,1-2.223.894l-5.25-.131A3.115,3.115,0,0,1,1.929,6.3a3.273,3.273,0,0,1-1-.722A3.375,3.375,0,0,1,0,3.253a3.277,3.277,0,0,1,.248-1.26A3.149,3.149,0,0,1,.925.977,3.02,3.02,0,0,1,3.158.085Z" transform="translate(205.376 5.511)" fill="#e2e2e2"/>
          </g>
        </g>
      </g>
      <g id="Grupo_2054" data-name="Grupo 2054" transform="translate(161.566 149.047)">
        <g transform="matrix(1, 0, 0, 1, -161.57, -149.05)" filter="url(#Rectángulo_418-2)">
          <path id="Rectángulo_418-8" data-name="Rectángulo 418" d="M17.8,6.115,267.386,9.366a7.42,7.42,0,0,1,2.967.66,7.75,7.75,0,0,1,2.419,1.725,8.067,8.067,0,0,1,1.629,2.531,8.194,8.194,0,0,1,.6,3.081V60.616a8.154,8.154,0,0,1-.6,3.076,7.972,7.972,0,0,1-1.629,2.516,7.655,7.655,0,0,1-2.419,1.7,7.379,7.379,0,0,1-2.967.634L17.8,69.6a9,9,0,0,1-3.421-.653,8.8,8.8,0,0,1-2.8-1.811,8.473,8.473,0,0,1-1.889-2.7A8.214,8.214,0,0,1,9,61.129V14.511a8.171,8.171,0,0,1,.693-3.3,8.37,8.37,0,0,1,1.889-2.682,8.693,8.693,0,0,1,2.8-1.787A8.961,8.961,0,0,1,17.8,6.115Z" transform="translate(161.57 149.05)" fill="#fff"/>
        </g>
        <path id="Rectángulo_438-9" data-name="Rectángulo 438" d="M3.544.026l94.284.7A3.378,3.378,0,0,1,101.185,4.1a3.331,3.331,0,0,1-3.357,3.333L3.544,6.913a3.629,3.629,0,0,1-1.379-.278A3.585,3.585,0,0,1,1.039,5.89a3.476,3.476,0,0,1-.76-1.1,3.367,3.367,0,0,1,0-2.683,3.415,3.415,0,0,1,.76-1.09A3.523,3.523,0,0,1,2.165.287,3.6,3.6,0,0,1,3.544.026Z" transform="translate(35.202 27.021)" fill="#e2e2e2"/>
        <path id="Rectángulo_438-10" data-name="Rectángulo 438" d="M3.336.025,8.883.066a3.314,3.314,0,0,1,1.293.272,3.359,3.359,0,0,1,1.766,4.381A3.294,3.294,0,0,1,8.883,6.737l-5.547-.03a3.329,3.329,0,0,1-1.3-.27A3.364,3.364,0,0,1,0,3.344,3.308,3.308,0,0,1,3.336.025Z" transform="translate(144.196 27.825)" fill="#e2e2e2"/>
        <path id="Rectángulo_438-11" data-name="Rectángulo 438" d="M3.3.024,8.795.065a3.267,3.267,0,0,1,1.28.27,3.351,3.351,0,0,1,1.749,4.359,3.286,3.286,0,0,1-1.749,1.755,3.243,3.243,0,0,1-1.28.254L3.3,6.673A3.281,3.281,0,0,1,2.018,6.4,3.354,3.354,0,0,1,.26,2.034,3.293,3.293,0,0,1,2.018.276,3.257,3.257,0,0,1,3.3.024Z" transform="translate(161.917 27.955)" fill="#e2e2e2"/>
        <path id="Rectángulo_438-12" data-name="Rectángulo 438" d="M3.544.012,213.784.7a3.057,3.057,0,0,1,1.224.259,3.158,3.158,0,0,1,1,.7,3.269,3.269,0,0,1,.673,1.033,3.352,3.352,0,0,1,0,2.524,3.248,3.248,0,0,1-.673,1.03,3.137,3.137,0,0,1-1,.694,3.048,3.048,0,0,1-1.224.253L3.544,6.9a3.621,3.621,0,0,1-1.379-.273,3.565,3.565,0,0,1-1.127-.74,3.457,3.457,0,0,1-.76-1.1,3.367,3.367,0,0,1,0-2.683,3.434,3.434,0,0,1,.76-1.093A3.542,3.542,0,0,1,2.165.278,3.611,3.611,0,0,1,3.544.012Z" transform="translate(35.202 41.956)" fill="#a1a1a1"/>
      </g>
      <g id="Grupo_2053" data-name="Grupo 2053" transform="translate(161.566 233.032)">
        <g transform="matrix(1, 0, 0, 1, -161.57, -233.03)" filter="url(#Rectángulo_418-3)">
          <path id="Rectángulo_418-9" data-name="Rectángulo 418" d="M17.8,8.7,267.386,6.08a7.316,7.316,0,0,1,2.967.59,7.5,7.5,0,0,1,2.419,1.668A7.814,7.814,0,0,1,274.4,10.83,8.087,8.087,0,0,1,275,13.9V57.151a8.245,8.245,0,0,1-2.226,5.645,7.912,7.912,0,0,1-2.419,1.76,7.491,7.491,0,0,1-2.967.7L17.8,72.192a8.9,8.9,0,0,1-3.421-.573,8.523,8.523,0,0,1-2.8-1.746A8.2,8.2,0,0,1,9.693,67.22,8.1,8.1,0,0,1,9,63.925V17.308a8.287,8.287,0,0,1,.693-3.321,8.649,8.649,0,0,1,1.889-2.726,8.975,8.975,0,0,1,2.8-1.853A9.08,9.08,0,0,1,17.8,8.7Z" transform="translate(161.57 233.03)" fill="#fff"/>
        </g>
        <g id="Grupo_2052" data-name="Grupo 2052" transform="translate(35.202 25.695)">
          <path id="Rectángulo_438-13" data-name="Rectángulo 438" d="M3.544.3,18.823.057A3.54,3.54,0,0,1,20.189.3,3.442,3.442,0,0,1,21.3,1.02,3.351,3.351,0,0,1,22.055,2.1a3.315,3.315,0,0,1,.275,1.329,3.383,3.383,0,0,1-.275,1.338,3.513,3.513,0,0,1-.751,1.1,3.6,3.6,0,0,1-2.481,1.048L3.544,7.19a3.583,3.583,0,0,1-1.379-.246,3.473,3.473,0,0,1-1.127-.718,3.364,3.364,0,0,1-.76-1.082A3.317,3.317,0,0,1,0,3.808,3.385,3.385,0,0,1,.279,2.461a3.528,3.528,0,0,1,.76-1.108A3.643,3.643,0,0,1,3.544.3Z" transform="translate(0 3.145)" fill="#a1a1a1"/>
          <path id="Rectángulo_438-14" data-name="Rectángulo 438" d="M3.162.17,10.516.051A3.023,3.023,0,0,1,11.74.286a3.074,3.074,0,0,1,1,.679,3.183,3.183,0,0,1,.673,1.02,3.292,3.292,0,0,1,.247,1.258,3.344,3.344,0,0,1-.92,2.309,3.223,3.223,0,0,1-1,.713,3.085,3.085,0,0,1-1.224.277l-7.355.133a3.041,3.041,0,0,1-1.23-.233A3.086,3.086,0,0,1,.927,5.761,3.189,3.189,0,0,1,.249,4.739,3.293,3.293,0,0,1,0,3.476,3.347,3.347,0,0,1,.927,1.159,3.236,3.236,0,0,1,1.932.445,3.1,3.1,0,0,1,3.162.17Z" transform="translate(203.268)" fill="#a1a1a1"/>
          <path id="Rectángulo_438-15" data-name="Rectángulo 438" d="M3.49.906,56.173.055A3.36,3.36,0,0,1,57.491.3a3.3,3.3,0,0,1,2.065,3.066,3.374,3.374,0,0,1-.266,1.314,3.454,3.454,0,0,1-3.117,2.111L3.49,7.74A3.5,3.5,0,0,1,2.132,7.5a3.417,3.417,0,0,1-1.109-.713A3.314,3.314,0,0,1,0,4.383,3.381,3.381,0,0,1,.274,3.047a3.5,3.5,0,0,1,.748-1.1A3.573,3.573,0,0,1,3.49.906Z" transform="translate(28.162 2.088)" fill="#e2e2e2"/>
          <path id="Rectángulo_438-16" data-name="Rectángulo 438" d="M3.544.38,18.823.071a3.532,3.532,0,0,1,1.366.242,3.423,3.423,0,0,1,1.115.712,3.306,3.306,0,0,1,1.027,2.4,3.391,3.391,0,0,1-.275,1.339A3.533,3.533,0,0,1,21.3,5.87a3.62,3.62,0,0,1-2.481,1.059L3.544,7.267a3.575,3.575,0,0,1-1.379-.24,3.454,3.454,0,0,1-1.127-.714,3.345,3.345,0,0,1-.76-1.079A3.309,3.309,0,0,1,0,3.9,3.393,3.393,0,0,1,.279,2.551a3.548,3.548,0,0,1,.76-1.111A3.658,3.658,0,0,1,3.544.38Z" transform="translate(0 17.99)" fill="#a1a1a1"/>
          <path id="Rectángulo_438-17" data-name="Rectángulo 438" d="M3.49,3.751,185.622.064a3.016,3.016,0,0,1,1.224.23,3.057,3.057,0,0,1,1,.675,3.166,3.166,0,0,1,.673,1.017,3.285,3.285,0,0,1,.247,1.257,3.357,3.357,0,0,1-.92,2.313,3.242,3.242,0,0,1-1,.717,3.093,3.093,0,0,1-1.224.282L3.49,10.584a3.5,3.5,0,0,1-1.358-.239,3.4,3.4,0,0,1-1.109-.708A3.3,3.3,0,0,1,0,7.241,3.389,3.389,0,0,1,.274,5.9a3.521,3.521,0,0,1,.748-1.1A3.588,3.588,0,0,1,3.49,3.751Z" transform="translate(28.162 14.05)" fill="#e2e2e2"/>
        </g>
      </g>
      <g id="Grupo_2045" data-name="Grupo 2045" transform="translate(472.406 73.631)">
        <g transform="matrix(1, 0, 0, 1, -472.41, -73.63)" filter="url(#Rectángulo_418-4)">
          <path id="Rectángulo_418-10" data-name="Rectángulo 418" d="M16.382,6.27l210.557,7.7a5.977,5.977,0,0,1,2.518.665,6.833,6.833,0,0,1,2.053,1.635,7.754,7.754,0,0,1,1.383,2.363,8.21,8.21,0,0,1,.507,2.85V61.33a7.976,7.976,0,0,1-.507,2.822,7.209,7.209,0,0,1-1.383,2.285,6.308,6.308,0,0,1-2.053,1.52,5.76,5.76,0,0,1-2.518.524L16.382,64.417a7.1,7.1,0,0,1-2.87-.667,7.6,7.6,0,0,1-2.347-1.715,8.056,8.056,0,0,1-1.584-2.509A8.224,8.224,0,0,1,9,56.481V13.794a7.974,7.974,0,0,1,.581-3.013,7.471,7.471,0,0,1,1.584-2.42,7.026,7.026,0,0,1,2.347-1.584A6.877,6.877,0,0,1,16.382,6.27Z" transform="translate(472.41 73.63)" fill="#fff"/>
        </g>
        <g id="Grupo_2044" data-name="Grupo 2044" transform="translate(53.171 28.958)">
          <path id="Rectángulo_438-18" data-name="Rectángulo 438" d="M6.293.19l16.631.5a5.938,5.938,0,0,1,2.419.6,6.48,6.48,0,0,1,1.973,1.49,7,7,0,0,1,1.329,2.16,7.2,7.2,0,0,1,.487,2.611V8.718a6.99,6.99,0,0,1-.487,2.584,6.5,6.5,0,0,1-1.329,2.086,5.989,5.989,0,0,1-1.973,1.379,5.736,5.736,0,0,1-2.419.463L6.293,14.8a6.018,6.018,0,0,1-2.447-.591,6.536,6.536,0,0,1-2-1.493A7.027,7.027,0,0,1,.5,10.542,7.207,7.207,0,0,1,0,7.909V6.73A6.991,6.991,0,0,1,.5,4.125a6.52,6.52,0,0,1,1.35-2.1,6.043,6.043,0,0,1,2-1.382A5.818,5.818,0,0,1,6.293.19Z" fill="#3df56e"/>
          <path id="Rectángulo_438-19" data-name="Rectángulo 438" d="M6.148.185,22.4.675a5.747,5.747,0,0,1,2.363.59,6.336,6.336,0,0,1,1.927,1.472,6.932,6.932,0,0,1,1.3,2.135,7.193,7.193,0,0,1,.476,2.581V8.608a6.981,6.981,0,0,1-.476,2.554,6.436,6.436,0,0,1-1.3,2.062,5.855,5.855,0,0,1-1.927,1.364,5.549,5.549,0,0,1-2.363.458L6.148,14.628a5.823,5.823,0,0,1-2.39-.584A6.389,6.389,0,0,1,1.8,12.568,6.955,6.955,0,0,1,.484,10.419,7.2,7.2,0,0,1,0,7.817V6.652A6.983,6.983,0,0,1,.484,4.077,6.456,6.456,0,0,1,1.8,2,5.905,5.905,0,0,1,3.758.635,5.627,5.627,0,0,1,6.148.185Z" transform="translate(38.729 1.168)" fill="#1ac1e3"/>
          <path id="Rectángulo_438-20" data-name="Rectángulo 438" d="M6.008.181,21.886.66a5.564,5.564,0,0,1,2.31.583A6.2,6.2,0,0,1,26.08,2.7a6.864,6.864,0,0,1,1.269,2.11,7.183,7.183,0,0,1,.465,2.551V8.5a6.973,6.973,0,0,1-.465,2.525,6.376,6.376,0,0,1-1.269,2.039A5.725,5.725,0,0,1,24.2,14.413a5.37,5.37,0,0,1-2.31.453L6.008,14.458a5.636,5.636,0,0,1-2.336-.576,6.247,6.247,0,0,1-1.91-1.458A6.887,6.887,0,0,1,.473,10.3,7.185,7.185,0,0,1,0,7.727V6.576A6.974,6.974,0,0,1,.473,4.03,6.394,6.394,0,0,1,1.762,1.978,5.773,5.773,0,0,1,3.672.627,5.444,5.444,0,0,1,6.008.181Z" transform="translate(76.568 2.309)" fill="#ffbc57"/>
          <path id="Rectángulo_438-21" data-name="Rectángulo 438" d="M5.872.177,21.394.645a5.389,5.389,0,0,1,2.258.575,6.065,6.065,0,0,1,1.841,1.437,6.8,6.8,0,0,1,1.24,2.086,7.172,7.172,0,0,1,.455,2.522V8.395a6.965,6.965,0,0,1-.455,2.5,6.318,6.318,0,0,1-1.24,2.017,5.6,5.6,0,0,1-1.841,1.334,5.2,5.2,0,0,1-2.258.449l-15.522-.4a5.457,5.457,0,0,1-2.283-.569,6.112,6.112,0,0,1-1.867-1.441,6.821,6.821,0,0,1-1.26-2.1A7.175,7.175,0,0,1,0,7.64V6.5A6.966,6.966,0,0,1,.462,3.984a6.335,6.335,0,0,1,1.26-2.029A5.646,5.646,0,0,1,3.589.619,5.27,5.27,0,0,1,5.872.177Z" transform="translate(113.548 3.424)" fill="#ff3737"/>
        </g>
      </g>
      <g id="Grupo_2055" data-name="Grupo 2055" transform="translate(472.406 153.096)">
        <g transform="matrix(1, 0, 0, 1, -472.41, -153.1)" filter="url(#Rectángulo_418-5)">
          <path id="Rectángulo_418-11" data-name="Rectángulo 418" d="M16.382,6.1,226.939,8.839a5.879,5.879,0,0,1,2.518.605,6.605,6.605,0,0,1,2.053,1.587,7.521,7.521,0,0,1,1.383,2.33A8.111,8.111,0,0,1,233.4,16.2V56.048a8.074,8.074,0,0,1-.507,2.833A7.435,7.435,0,0,1,231.51,61.2a6.523,6.523,0,0,1-2.053,1.569,5.845,5.845,0,0,1-2.518.583l-210.557.892a7,7,0,0,1-2.87-.6,7.348,7.348,0,0,1-2.347-1.66,7.805,7.805,0,0,1-1.584-2.471A8.118,8.118,0,0,1,9,56.481V13.794a8.079,8.079,0,0,1,.581-3.027,7.713,7.713,0,0,1,1.584-2.457A7.258,7.258,0,0,1,13.513,6.67,6.965,6.965,0,0,1,16.382,6.1Z" transform="translate(472.41 153.1)" fill="#fff"/>
        </g>
        <path id="Rectángulo_438-22" data-name="Rectángulo 438" d="M6.293.041,61.126.4a5.657,5.657,0,0,1,2.363.534,6.127,6.127,0,0,1,1.927,1.426,6.719,6.719,0,0,1,1.3,2.1,7.1,7.1,0,0,1,.476,2.569V8.192a7.07,7.07,0,0,1-.476,2.565,6.641,6.641,0,0,1-1.3,2.093,6.051,6.051,0,0,1-1.927,1.41,5.626,5.626,0,0,1-2.363.514l-54.832-.12a5.927,5.927,0,0,1-2.447-.534,6.322,6.322,0,0,1-2-1.446A6.809,6.809,0,0,1,.5,10.531,7.116,7.116,0,0,1,0,7.909V6.73A7.082,7.082,0,0,1,.5,4.113a6.73,6.73,0,0,1,1.35-2.131,6.244,6.244,0,0,1,2-1.429A5.9,5.9,0,0,1,6.293.041Z" transform="translate(53.171 28.012)" fill="#3f3f41"/>
        <path id="Rectángulo_438-23" data-name="Rectángulo 438" d="M6.008.04l15.879.1A5.476,5.476,0,0,1,24.2.672a5.993,5.993,0,0,1,1.884,1.41,6.655,6.655,0,0,1,1.269,2.08,7.094,7.094,0,0,1,.465,2.54V7.845a7.061,7.061,0,0,1-.465,2.536A6.578,6.578,0,0,1,26.08,12.45,5.918,5.918,0,0,1,24.2,13.843a5.446,5.446,0,0,1-2.31.508L6.008,14.316a5.549,5.549,0,0,1-2.336-.521,6.042,6.042,0,0,1-1.91-1.413A6.676,6.676,0,0,1,.473,10.288,7.1,7.1,0,0,1,0,7.727V6.576A7.063,7.063,0,0,1,.473,4.019,6.6,6.6,0,0,1,1.762,1.937,5.967,5.967,0,0,1,3.672.54,5.519,5.519,0,0,1,6.008.04Z" transform="translate(129.74 28.516)" fill="#3f3f41"/>
        <path id="Rectángulo_438-24" data-name="Rectángulo 438" d="M5.872.039l15.522.1a5.3,5.3,0,0,1,2.258.522,5.864,5.864,0,0,1,1.841,1.394,6.593,6.593,0,0,1,1.24,2.057,7.085,7.085,0,0,1,.455,2.512V7.754a7.052,7.052,0,0,1-.455,2.508,6.517,6.517,0,0,1-1.24,2.046,5.791,5.791,0,0,1-1.841,1.378,5.273,5.273,0,0,1-2.258.5L5.872,14.153a5.372,5.372,0,0,1-2.283-.515,5.91,5.91,0,0,1-1.867-1.4,6.613,6.613,0,0,1-1.26-2.07A7.086,7.086,0,0,1,0,7.64V6.5A7.054,7.054,0,0,1,.462,3.973a6.536,6.536,0,0,1,1.26-2.059A5.837,5.837,0,0,1,3.589.534,5.343,5.343,0,0,1,5.872.039Z" transform="translate(166.719 28.76)" fill="#3f3f41"/>
      </g>
      <g id="Grupo_2051" data-name="Grupo 2051" transform="translate(472.406 230.202)">
        <g transform="matrix(1, 0, 0, 1, -472.41, -230.2)" filter="url(#Rectángulo_418-6)">
          <path id="Rectángulo_418-12" data-name="Rectángulo 418" d="M16.382,8.282,226.939,6.068a5.791,5.791,0,0,1,2.518.546,6.387,6.387,0,0,1,2.053,1.538,7.293,7.293,0,0,1,1.383,2.3,8.013,8.013,0,0,1,.507,2.826V53.125a8.173,8.173,0,0,1-.507,2.845,7.667,7.667,0,0,1-1.383,2.351,6.747,6.747,0,0,1-2.053,1.617,5.94,5.94,0,0,1-2.518.642L16.382,66.429a6.909,6.909,0,0,1-2.87-.532,7.112,7.112,0,0,1-2.347-1.6,7.561,7.561,0,0,1-1.584-2.434A8.013,8.013,0,0,1,9,58.84V16.153a8.184,8.184,0,0,1,.581-3.041,7.961,7.961,0,0,1,1.584-2.495,7.5,7.5,0,0,1,2.347-1.694A7.064,7.064,0,0,1,16.382,8.282Z" transform="translate(472.41 230.2)" fill="#fff"/>
        </g>
        <g id="Grupo_2044-2" data-name="Grupo 2044" transform="translate(53.171 28.368)">
          <path id="Rectángulo_438-25" data-name="Rectángulo 438" d="M6.293.388,22.925.105a5.764,5.764,0,0,1,2.419.484,6.063,6.063,0,0,1,1.973,1.4,6.575,6.575,0,0,1,1.329,2.1,7.023,7.023,0,0,1,.487,2.588V7.84a7.17,7.17,0,0,1-.487,2.607A6.92,6.92,0,0,1,27.316,12.6a6.4,6.4,0,0,1-1.973,1.472,5.9,5.9,0,0,1-2.419.577L6.293,15a5.846,5.846,0,0,1-2.447-.476,6.117,6.117,0,0,1-2-1.4A6.6,6.6,0,0,1,.5,11.013,7.025,7.025,0,0,1,0,8.4V7.225A7.173,7.173,0,0,1,.5,4.6a6.945,6.945,0,0,1,1.35-2.163,6.455,6.455,0,0,1,2-1.476A5.983,5.983,0,0,1,6.293.388Z" transform="translate(0 0.562)" fill="#3df56e"/>
          <path id="Rectángulo_438-26" data-name="Rectángulo 438" d="M6.167.38,22.465.1a5.6,5.6,0,0,1,2.37.479,5.944,5.944,0,0,1,1.933,1.383,6.52,6.52,0,0,1,1.3,2.077A7.016,7.016,0,0,1,28.548,6.6V7.761a7.161,7.161,0,0,1-.477,2.58,6.861,6.861,0,0,1-1.3,2.127,6.275,6.275,0,0,1-1.933,1.457,5.737,5.737,0,0,1-2.37.57l-16.3.348a5.679,5.679,0,0,1-2.4-.472,6,6,0,0,1-1.961-1.385A6.541,6.541,0,0,1,.485,10.9,7.017,7.017,0,0,1,0,8.314V7.147a7.164,7.164,0,0,1,.485-2.6A6.884,6.884,0,0,1,1.809,2.4,6.328,6.328,0,0,1,3.769.944,5.813,5.813,0,0,1,6.167.38Z" transform="translate(33.71)" fill="#1ac1e3"/>
        </g>
      </g>
      <g id="Grupo_1216" data-name="Grupo 1216" transform="translate(0 116.702)">
        <g transform="matrix(1, 0, 0, 1, 0, -116.7)" filter="url(#Rectángulo_423)">
          <path id="Rectángulo_423-2" data-name="Rectángulo 423" d="M20.98,6.25,138.922,8.713a11.747,11.747,0,0,1,4.362.933,11.556,11.556,0,0,1,3.554,2.368,11,11,0,0,1,2.393,3.449,10.407,10.407,0,0,1,.877,4.181V128.651a10.366,10.366,0,0,1-.877,4.175,10.9,10.9,0,0,1-2.393,3.434,11.452,11.452,0,0,1-3.554,2.345,11.7,11.7,0,0,1-4.362.9L20.98,141.2a12.647,12.647,0,0,1-4.654-.8,11.88,11.88,0,0,1-3.809-2.324,10.911,10.911,0,0,1-2.572-3.495A10.273,10.273,0,0,1,9,130.261V17.106a10.231,10.231,0,0,1,.944-4.3,10.809,10.809,0,0,1,2.572-3.478,11.777,11.777,0,0,1,3.809-2.3A12.606,12.606,0,0,1,20.98,6.25Z" transform="translate(0 116.7)" fill="#fff"/>
        </g>
        <g id="Grupo_1215" data-name="Grupo 1215" transform="translate(48.092 62.587)">
          <path id="Trazado_904" data-name="Trazado 904" d="M21.6.135,7.6.048A8.015,8.015,0,0,0,4.65.591,7.624,7.624,0,0,0,2.234,2.1,7.076,7.076,0,0,0,.6,4.351,6.682,6.682,0,0,0,0,7.116V20.087a1.08,1.08,0,0,0,.1.447A1.149,1.149,0,0,0,.36,20.9a1.24,1.24,0,0,0,.391.246,1.313,1.313,0,0,0,.957,0A1.237,1.237,0,0,0,2.1,20.9a1.147,1.147,0,0,0,.263-.364,1.08,1.08,0,0,0,.1-.447V7.126a4.522,4.522,0,0,1,.406-1.872,4.791,4.791,0,0,1,1.1-1.524A5.157,5.157,0,0,1,5.6,2.708a5.424,5.424,0,0,1,2-.368l13.99.079a5.394,5.394,0,0,1,1.984.389A5.175,5.175,0,0,1,25.2,3.843,4.828,4.828,0,0,1,26.29,5.369a4.543,4.543,0,0,1,.4,1.864V20.113a1.08,1.08,0,0,0,.1.444,1.145,1.145,0,0,0,.26.363,1.222,1.222,0,0,0,.385.245,1.287,1.287,0,0,0,.943,0,1.22,1.22,0,0,0,.385-.244,1.141,1.141,0,0,0,.26-.362,1.077,1.077,0,0,0,.1-.443V7.243a6.713,6.713,0,0,0-.593-2.749,7.134,7.134,0,0,0-1.61-2.253A7.648,7.648,0,0,0,24.524.712,7.964,7.964,0,0,0,21.6.135Z" transform="translate(0 0)" fill="#f04d00"/>
          <path id="Trazado_905" data-name="Trazado 905" d="M28.085,19.009,16.308,10.557l11.777-8.37a1.132,1.132,0,0,0,.3-.335,1.08,1.08,0,0,0,.109-.829,1.111,1.111,0,0,0-.2-.4,1.178,1.178,0,0,0-.346-.3A1.252,1.252,0,0,0,27.074.2a1.214,1.214,0,0,0-.423.178L14.32,9.133,1.908.223A1.253,1.253,0,0,0,1.479.038,1.281,1.281,0,0,0,1.024.02,1.251,1.251,0,0,0,.6.161,1.171,1.171,0,0,0,.244.454a1.1,1.1,0,0,0-.205.4A1.074,1.074,0,0,0,.01,1.28a1.1,1.1,0,0,0,.14.409,1.16,1.16,0,0,0,.3.341L12.33,10.543.453,18.975a1.152,1.152,0,0,0-.3.339,1.093,1.093,0,0,0-.14.408,1.077,1.077,0,0,0,.029.428,1.11,1.11,0,0,0,.205.4,1.184,1.184,0,0,0,.351.3,1.259,1.259,0,0,0,.429.144,1.28,1.28,0,0,0,.455-.015,1.239,1.239,0,0,0,.429-.182L14.32,11.967l12.331,8.844a1.2,1.2,0,0,0,.274.156,1.241,1.241,0,0,0,.3.081,1.259,1.259,0,0,0,.314,0,1.246,1.246,0,0,0,.309-.077,1.208,1.208,0,0,0,.276-.152,1.156,1.156,0,0,0,.22-.211,1.114,1.114,0,0,0,.154-.259,1.078,1.078,0,0,0-.017-.882,1.124,1.124,0,0,0-.164-.254,1.176,1.176,0,0,0-.233-.208Z" transform="translate(35.013 0.239)" fill="#f04d00"/>
        </g>
      </g>
    </g>
    <g id="Grupo_1363" data-name="Grupo 1363" transform="translate(1009.886 320.623)">
      <g id="Grupo_1347" data-name="Grupo 1347" transform="translate(0 53.059)">
        <ellipse id="Elipse_67" data-name="Elipse 67" cx="154.892" cy="8.823" rx="154.892" ry="8.823" transform="translate(0 254.603)" fill="#d5d5d5"/>
        <g id="Grupo_1251" data-name="Grupo 1251" transform="translate(24.624 119.493)">
          <path id="Trazado_995" data-name="Trazado 995" d="M1874.54,826.424l14.852,6.419V693.329l-14.852-6.419Z" transform="translate(-1874.538 -686.91)" fill="#d8d8d8"/>
          <path id="Trazado_996" data-name="Trazado 996" d="M1705.5,686.91h62.808l14.85,6.419H1720.35Z" transform="translate(-1705.5 -686.91)" fill="#f5f5f5"/>
          <rect id="Rectángulo_446" data-name="Rectángulo 446" width="62.808" height="139.514" transform="translate(14.85 6.419)" fill="#ececec"/>
        </g>
        <g id="Grupo_1250" data-name="Grupo 1250" transform="translate(35.242 0)">
          <path id="Trazado_993" data-name="Trazado 993" d="M2541.422-1596.93l11.485,40.964-4-.924Z" transform="translate(-2500.147 1673.91)" fill="#f04d00" stroke="#707070" stroke-width="1"/>
          <path id="Trazado_987" data-name="Trazado 987" d="M386.673,218.152l-4.813,22.357a27.439,27.439,0,0,0,.034,11.9l8.994,39.944,14.215,4.164" transform="translate(-347.705 -216.962)" fill="#2d2d2d" stroke="#2d2d2d" stroke-width="1"/>
          <path id="Trazado_988" data-name="Trazado 988" d="M495.464,464.892,486.8,482.35l13.984,6.228Z" transform="translate(-460.167 -424.516)" fill="#191919" stroke="#191919" stroke-linecap="round" stroke-linejoin="round" stroke-width="1"/>
          <path id="Trazado_991" data-name="Trazado 991" d="M407.128,600.175l7.012-29.49a12.993,12.993,0,0,1,6.882-8.64l15.528-7.677a5.119,5.119,0,0,1,6.527,3.744l3.852,16.868h0a2.443,2.443,0,0,0-2.381,2.986l8.391,36.749a2.443,2.443,0,0,0,2.381,1.9h1.115l.5,2.184a3.717,3.717,0,0,1-3.627,4.553H414.852l-3.57-20.417a3.333,3.333,0,0,0-3.28-2.756Z" transform="translate(-403.745 -499.58)" fill="#464646" stroke="#464646" stroke-linecap="round" stroke-linejoin="round" stroke-width="1"/>
          <path id="Trazado_989" data-name="Trazado 989" d="M488.063,675.735h13.052a1.9,1.9,0,0,0,1.862-2.255L499.5,655.323a1.9,1.9,0,0,0-1.862-1.54H484.59a1.9,1.9,0,0,0-1.862,2.255L486.2,674.2a1.9,1.9,0,0,0,1.859,1.54Z" transform="translate(-461.731 -583.413)" fill="#373737"/>
          <path id="Trazado_990" data-name="Trazado 990" d="M492.041,676.924h6.835a1.74,1.74,0,0,0,1.71-2.068l-3-15.663a1.742,1.742,0,0,0-1.71-1.416h-6.835a1.74,1.74,0,0,0-1.71,2.068l3,15.663A1.74,1.74,0,0,0,492.041,676.924Z" transform="translate(-460.662 -585.915)" fill="#464646"/>
          <path id="Trazado_992" data-name="Trazado 992" d="M672.827,857.757l3.255-13.691h.873a3.333,3.333,0,0,1,3.28,2.756l3.579,20.428h-3.485a4.893,4.893,0,0,1-3.839-1.862l-2.735-3.461a4.892,4.892,0,0,1-.922-4.162Z" transform="translate(-672.7 -743.484)" fill="#2d2d2d" stroke="#2d2d2d" stroke-width="1"/>
          <rect id="Rectángulo_445" data-name="Rectángulo 445" width="3.471" height="81.122" rx="0.98" transform="translate(60.046 79.078) rotate(167.11)" fill="#464646" stroke="#464646" stroke-width="1"/>
          <path id="Trazado_994" data-name="Trazado 994" d="M2546.65-1623.849s3.431-.742,5.047,5.707,5.686,28.146,6.156,29.9a1.714,1.714,0,0,1-.113,1.353,1.706,1.706,0,0,1-1.062.844" transform="translate(-2513.264 1659.157)" fill="none" stroke="#f04d00" stroke-width="1"/>
        </g>
      </g>
      <g id="Grupo_2040" data-name="Grupo 2040" transform="translate(122.804 0)">
        <g id="Grupo_2039" data-name="Grupo 2039">
          <path id="Trazado_1063" data-name="Trazado 1063" d="M1630.064,3545.34s-2.32-6.9-5.625-5.247c-2.955,1.479-7.865,4.333-9.073-2.956-.529-3.189-1.242-8.357-1.693-13.568-.579-6.7-.727-13.464.505-16.2,2.191-4.857,17.508-16.382,27.093-3.741s4.6,14.219,4.6,18.712-1.082,7.758-.122,10.925-11.317,12-11.317,12Z" transform="translate(-1561.729 -3495.35)" fill="#e5be99"/>
          <path id="Trazado_1064" data-name="Trazado 1064" d="M1619.2,3504.718s-10.429,3.225-10.8,1.79,2.672-10.18,7.287-9.447,8.626-2.179,10.084-2.42,10.327-.962,14.817,3.538,7.765,10.7,6.666,17.619-4.982,7.782-5.171,12.575-1.764-.19-2.369-3.836-3.112-12.592-6.652-12.192-6.54.711-6.749,4.677-5.023-5.366-6.265-7.2C1618.925,3508.156,1619.2,3504.718,1619.2,3504.718Z" transform="translate(-1558.432 -3494.448)"/>
          <path id="Trazado_1022" data-name="Trazado 1022" d="M1710.887,3655.305l-25.694,16.663c-6.78,10.352-9.375,11.377-10.513,9.939-1.706-2.155-.561-3.531-1.478-5.173s-6.65,1.479-10.344,4.434c-4,3.2-2.96-1.767-1.881-3.035,4.1-4.354,6.315-8.788,16.862-11.674l25.784-24.438Z" transform="translate(-1660 -3532.977)" fill="#e5be99"/>
          <path id="Trazado_1065" data-name="Trazado 1065" d="M1675.66,3568.974a8.114,8.114,0,0,0-8.27-3.217c-4.068.844-10.361,3.042-14.531,8.746-6.6,9.027-19.18,39.858-24.876,45.681-4.462,4.563-15.087,14.751-19.479,18.95a2.478,2.478,0,0,0,.078,3.652l9.02,7.944a2.48,2.48,0,0,0,3.057.174l24.161-16.833,28.912-43.02a24.862,24.862,0,0,0,4.266-12.113A15.259,15.259,0,0,0,1675.66,3568.974Z" transform="translate(-1588.551 -3513.021)" fill="#e9b714"/>
          <rect id="Rectángulo_1088" data-name="Rectángulo 1088" width="8.128" height="8.128" transform="translate(84.877 286.37)" fill="#e5be99"/>
          <path id="Trazado_1066" data-name="Trazado 1066" d="M1598.918,3899.633l26.427-9.173a14.652,14.652,0,0,1,4.812-.812,15.746,15.746,0,0,0,5.621,1.373,5.313,5.313,0,0,0,4-1.373,2.87,2.87,0,0,1,2.87,2.87v9.715a3.213,3.213,0,0,1-3.214,3.214h-40.069a1.365,1.365,0,0,1-1.365-1.365v-3.159A1.365,1.365,0,0,1,1598.918,3899.633Z" transform="translate(-1545.947 -3597.627)" fill="#101010"/>
          <path id="Trazado_1067" data-name="Trazado 1067" d="M1613.752,3834.178s-8.243-46.025-12.988-66.609S1589.9,3702.65,1590,3696h48.135s-14.039,31.775-13.3,51.726,5.172,85.714,4.433,87.93S1613.752,3834.178,1613.752,3834.178Z" transform="translate(-1535.525 -3547.069)" fill="#292929"/>
          <rect id="Rectángulo_1089" data-name="Rectángulo 1089" width="8.128" height="8.128" transform="translate(95.961 295.237)" fill="#e5be99"/>
          <path id="Trazado_1068" data-name="Trazado 1068" d="M1582.917,3912.633l26.428-9.173a14.66,14.66,0,0,1,4.813-.812,15.732,15.732,0,0,0,5.621,1.375,5.312,5.312,0,0,0,4-1.375,2.871,2.871,0,0,1,2.87,2.871v9.715a3.213,3.213,0,0,1-3.214,3.214h-40.069a1.365,1.365,0,0,1-1.364-1.365v-3.16A1.365,1.365,0,0,1,1582.917,3912.633Z" transform="translate(-1518.125 -3601.021)" fill="#212121"/>
          <path id="Trazado_1069" data-name="Trazado 1069" d="M1610.274,3843.784s-8.242-46.024-12.988-66.608-11.5-74.525-11.4-81.176h39.9s-5.172,41.38-4.434,61.331,5.173,85.715,4.434,87.931S1610.274,3843.784,1610.274,3843.784Z" transform="translate(-1520.224 -3547.069)" fill="#3e3e3e"/>
          <path id="Trazado_1070" data-name="Trazado 1070" d="M1600.773,3555.785s5.461-4.438,7.9-5.693c1.84-.947,7.367-2.9,10.163-3.864a2.138,2.138,0,0,1,2.546.944l5.847,11.756a40.4,40.4,0,0,1,5.3,15.971l9.83,78.8a2.163,2.163,0,0,1-2.147,2.431l-55.041.739a2.285,2.285,0,0,1-2.284-2.36l5.026-62.583a61.058,61.058,0,0,1,7.221-26.846l4.135-7.707A4.157,4.157,0,0,1,1600.773,3555.785Z" transform="translate(-1534.509 -3507.936)" fill="#f2f2f2"/>
          <path id="Trazado_1071" data-name="Trazado 1071" d="M1597.805,3550.092c1.84-.947,7.367-2.9,10.163-3.864a2.137,2.137,0,0,1,2.546.944l7.325,12.494a40.418,40.418,0,0,1,5.3,15.972l9.83,78.8a2.163,2.163,0,0,1-2.146,2.431s-13.6-1.143-19.174,2.676c-9.042,6.191-28.477,3.974-28.477,3.974a2.285,2.285,0,0,1-2.284-2.36s5.088-91.706,9.528-99.98C1590.416,3561.176,1595.367,3551.347,1597.805,3550.092Z" transform="translate(-1523.642 -3507.936)" fill="#ffcf33"/>
          <path id="Trazado_1072" data-name="Trazado 1072" d="M1647.624,3716.241s-1.478,10.349-1.478,14.044c0,1.877-2.1,7.626-4.991,9.193a5.605,5.605,0,0,1-8.18-3.974c-.114-.653-.207-1.357-.27-2.119-.5-6.055,1.815-15.2,6.2-19.126.98-.877,3.361-5.332,4.288-5.4,1.587-.121,4.858-.846,5.911,0C1650.187,3709.728,1647.624,3716.241,1647.624,3716.241Z" transform="translate(-1578.264 -3550.32)" fill="#e5be99"/>
          <path id="Trazado_1073" data-name="Trazado 1073" d="M1627.06,3568.885a8.113,8.113,0,0,0-8.8,1.129c-3.168,2.686-7.644,7.626-8.578,14.631-1.478,11.083,2.217,44.177,0,52.015-1.737,6.14-9.89,29.036-11.738,34.824a2.477,2.477,0,0,0,1.814,3.169l11.722,2.664a2.48,2.48,0,0,0,2.768-1.309l16.864-35.2,4.817-51.608a24.876,24.876,0,0,0-2.046-12.678A15.265,15.265,0,0,0,1627.06,3568.885Z" transform="translate(-1539.212 -3513.67)" fill="#ffe285"/>
        </g>
        <path id="Trazado_1074" data-name="Trazado 1074" d="M1649.777,3522s.451,7.612,0,9.633c-1.478,6.624-12.362,2.053-13.338,2.133-.7.058.037,12.619,1.515,14.1s10.345,2.217,11.084-2.216,3.4-9.658,3.548-12.589-.593-10.318-.593-10.318Z" transform="translate(-1584.111 -3501.641)"/>
      </g>
    </g>
  </g>
</svg>
